<?xml version="1.0" encoding="utf-8"?>
<!-- Generator: Adobe Illustrator 23.0.1, SVG Export Plug-In . SVG Version: 6.00 Build 0)  -->
<svg version="1.1" id="Layer_1" xmlns="http://www.w3.org/2000/svg" xmlns:xlink="http://www.w3.org/1999/xlink" x="0px" y="0px"
	 viewBox="0 0 512 391.7" style="enable-background:new 0 0 512 391.7;" xml:space="preserve">
<style type="text/css">
	.st0{fill:#FFFFFF;}
	.st1{fill-rule:evenodd;clip-rule:evenodd;fill:#FFFFFF;}
</style>
<g>
	<path class="st0" d="M181.1,158.1c0-1.2-0.2-2-0.6-2.5c-0.4-0.4-0.9-0.6-1.6-0.6c-0.7,0-1.2,0.2-1.6,0.6c-0.4,0.4-0.6,1.1-0.6,2.1
		v2.9h-4.1v-2.7c0-2.2,0.5-3.9,1.6-5.1c1.1-1.2,2.7-1.8,4.8-1.8c2.1,0,3.7,0.6,4.8,1.8c1.1,1.2,1.6,2.9,1.6,5.1c0,1.5-0.2,2.8-0.7,4
		c-0.5,1.2-1,2.3-1.7,3.3c-0.7,1-1.4,1.9-2.2,2.7c-0.8,0.8-1.5,1.6-2.1,2.3c-0.6,0.7-1.1,1.5-1.5,2.2c-0.4,0.7-0.5,1.5-0.4,2.3h8.1
		v3.9h-12.4v-3.4c0-1.3,0.2-2.5,0.6-3.5c0.4-1,0.9-1.9,1.6-2.8c0.6-0.8,1.3-1.6,2.1-2.4c0.7-0.7,1.4-1.5,2-2.4
		c0.6-0.8,1.2-1.7,1.6-2.7C180.9,160.6,181.1,159.4,181.1,158.1L181.1,158.1z M192,172.4c0,1,0.2,1.7,0.6,2.1
		c0.4,0.4,0.9,0.6,1.6,0.6c0.7,0,1.2-0.2,1.6-0.6c0.4-0.4,0.6-1.1,0.6-2.1v-14.8c0-1-0.2-1.7-0.6-2.1c-0.4-0.4-0.9-0.6-1.6-0.6
		c-0.7,0-1.2,0.2-1.6,0.6c-0.4,0.4-0.6,1.1-0.6,2.1V172.4L192,172.4z M187.7,157.9c0-2.2,0.6-3.9,1.7-5.1c1.1-1.2,2.7-1.8,4.8-1.8
		c2.1,0,3.7,0.6,4.8,1.8c1.1,1.2,1.7,2.9,1.7,5.1v14.2c0,2.2-0.6,3.9-1.7,5.1c-1.1,1.2-2.7,1.8-4.8,1.8c-2.1,0-3.7-0.6-4.8-1.8
		c-1.1-1.2-1.7-2.9-1.7-5.1V157.9L187.7,157.9z"/>
	<path class="st0" d="M305.4,155.3c0.8,0,1.5-0.1,2.1-0.3c0.5-0.2,1-0.4,1.3-0.7c0.3-0.3,0.6-0.7,0.8-1.1c0.2-0.4,0.4-0.9,0.5-1.3
		h2.9v27.3h-4.3v-20.9h-3.3V155.3L305.4,155.3z M317.9,158.6c0-2.3,0.5-4.1,1.6-5.3c1.1-1.2,2.7-1.8,5-1.8c2.1,0,3.7,0.6,4.8,1.8
		c1.1,1.2,1.6,2.9,1.6,5.1v0.7h-4.1v-1c0-1-0.2-1.7-0.6-2.1c-0.4-0.4-0.9-0.6-1.6-0.6c-0.8,0-1.3,0.2-1.8,0.7
		c-0.4,0.5-0.6,1.4-0.6,2.7v5c0.8-1.6,2.1-2.4,4-2.4c1.6,0,2.8,0.5,3.6,1.6c0.8,1.1,1.2,2.6,1.2,4.6v5c0,2.2-0.6,3.9-1.7,5.1
		c-1.1,1.2-2.7,1.8-4.8,1.8c-2.1,0-3.7-0.6-4.8-1.8c-1.1-1.2-1.7-2.9-1.7-5.1V158.6L317.9,158.6z M324.4,165.3
		c-0.7,0-1.2,0.2-1.6,0.6c-0.4,0.4-0.6,1.1-0.6,2.1v4.9c0,1,0.2,1.7,0.6,2.1c0.4,0.4,0.9,0.6,1.6,0.6s1.2-0.2,1.6-0.6
		c0.4-0.4,0.6-1.1,0.6-2.1V168c0-1-0.2-1.7-0.6-2.1C325.7,165.5,325.1,165.3,324.4,165.3L324.4,165.3z"/>
	<path class="st0" d="M202,293.2h3.6v23H202V293.2L202,293.2z M211.4,299.5v16.6h-3.2v-23h4.5l3.7,13.7v-13.7h3.2v23h-3.7
		L211.4,299.5L211.4,299.5z M230.7,308.5l-4.6-15.3h3.8l2.8,10.5l2.8-10.5h3.4l-4.6,15.3v7.6h-3.6V308.5L230.7,308.5z M243.6,310.9
		c0,0.8,0.2,1.4,0.5,1.8c0.3,0.3,0.8,0.5,1.4,0.5c0.6,0,1-0.2,1.4-0.5c0.3-0.3,0.5-0.9,0.5-1.8v-12.4c0-0.8-0.2-1.4-0.5-1.8
		c-0.3-0.3-0.8-0.5-1.4-0.5c-0.6,0-1,0.2-1.4,0.5c-0.3,0.3-0.5,0.9-0.5,1.8V310.9L243.6,310.9z M240,298.7c0-1.9,0.5-3.3,1.4-4.3
		c0.9-1,2.3-1.5,4.1-1.5s3.1,0.5,4.1,1.5c0.9,1,1.4,2.4,1.4,4.3v11.9c0,1.9-0.5,3.3-1.4,4.3c-0.9,1-2.3,1.5-4.1,1.5
		s-3.1-0.5-4.1-1.5c-0.9-1-1.4-2.4-1.4-4.3V298.7L240,298.7z M256.7,293.2v17.7c0,0.8,0.2,1.4,0.5,1.7c0.3,0.3,0.8,0.5,1.4,0.5
		c0.6,0,1-0.2,1.4-0.5c0.3-0.3,0.5-0.9,0.5-1.7v-17.7h3.4v17.5c0,1.9-0.5,3.3-1.4,4.3c-0.9,1-2.2,1.5-4,1.5s-3.1-0.5-4-1.5
		c-0.9-1-1.4-2.4-1.4-4.3v-17.5H256.7L256.7,293.2z M273.9,316.1c0-0.2-0.1-0.3-0.1-0.4c0-0.1-0.1-0.3-0.1-0.5
		c0-0.2-0.1-0.4-0.1-0.8c0-0.3,0-0.7,0-1.1v-3.6c0-1.1-0.2-1.8-0.6-2.3c-0.4-0.4-1-0.7-1.8-0.7h-1.2v9.3h-3.6v-23h5.4
		c1.9,0,3.2,0.4,4.1,1.3c0.8,0.9,1.3,2.2,1.3,4v1.8c0,2.4-0.8,3.9-2.4,4.7c0.9,0.4,1.5,1,1.9,1.8c0.3,0.8,0.5,1.9,0.5,3.1v3.5
		c0,0.6,0,1.1,0.1,1.5c0,0.4,0.2,0.9,0.3,1.3H273.9L273.9,316.1z M269.9,296.5v7.1h1.4c0.7,0,1.2-0.2,1.6-0.5c0.4-0.4,0.6-1,0.6-1.9
		v-2.3c0-0.8-0.1-1.4-0.4-1.8c-0.3-0.4-0.8-0.6-1.4-0.6H269.9L269.9,296.5z M295.1,307.6v3c0,1.9-0.5,3.3-1.4,4.3
		c-0.9,1-2.2,1.5-4,1.5c-1.8,0-3.1-0.5-4-1.5c-0.9-1-1.4-2.4-1.4-4.3v-11.9c0-1.9,0.5-3.3,1.4-4.3c0.9-1,2.2-1.5,4-1.5
		c1.8,0,3.1,0.5,4,1.5c0.9,1,1.4,2.4,1.4,4.3v2.2h-3.4v-2.5c0-0.8-0.2-1.4-0.5-1.8c-0.3-0.3-0.8-0.5-1.4-0.5c-0.6,0-1,0.2-1.4,0.5
		c-0.3,0.3-0.5,0.9-0.5,1.8v12.4c0,0.8,0.2,1.4,0.5,1.7c0.3,0.3,0.8,0.5,1.4,0.5c0.6,0,1-0.2,1.4-0.5c0.3-0.3,0.5-0.9,0.5-1.7v-3.3
		H295.1L295.1,307.6z M300.7,293.2v17.7c0,0.8,0.2,1.4,0.5,1.7c0.3,0.3,0.8,0.5,1.4,0.5c0.6,0,1-0.2,1.4-0.5
		c0.3-0.3,0.5-0.9,0.5-1.7v-17.7h3.4v17.5c0,1.9-0.5,3.3-1.4,4.3c-0.9,1-2.2,1.5-4,1.5s-3.1-0.5-4-1.5c-0.9-1-1.4-2.4-1.4-4.3v-17.5
		H300.7L300.7,293.2z M315.6,293.2c1.8,0,3.2,0.5,4.1,1.4c0.9,1,1.3,2.4,1.3,4.2v3c0,1.9-0.4,3.3-1.3,4.2c-0.9,1-2.2,1.4-4.1,1.4
		h-1.7v8.6h-3.6v-23H315.6L315.6,293.2z M313.9,296.5v7.8h1.7c0.6,0,1-0.2,1.3-0.5c0.3-0.3,0.5-0.9,0.5-1.7v-3.4
		c0-0.8-0.2-1.4-0.5-1.7c-0.3-0.3-0.7-0.5-1.3-0.5H313.9L313.9,296.5z"/>
	<path class="st0" d="M147.3,229h13v18.8c0,4.8-1.2,8.5-3.5,11c-2.3,2.6-5.8,3.8-10.4,3.8c-4.6,0-8-1.3-10.4-3.8
		c-2.3-2.6-3.5-6.2-3.5-11V217c0-4.8,1.2-8.5,3.5-11c2.3-2.6,5.8-3.8,10.4-3.8c4.6,0,8,1.3,10.4,3.8c2.3,2.6,3.5,6.2,3.5,11v5.8
		h-8.8v-6.3c0-2.1-0.4-3.7-1.3-4.5s-2-1.3-3.5-1.3c-1.5,0-2.6,0.4-3.5,1.3c-0.9,0.9-1.3,2.4-1.3,4.5v32c0,2.1,0.4,3.6,1.3,4.5
		c0.9,0.8,2,1.3,3.5,1.3c1.5,0,2.6-0.4,3.5-1.3c0.9-0.8,1.3-2.3,1.3-4.5v-10.9h-4.2V229L147.3,229z M185.8,262
		c-0.1-0.4-0.2-0.8-0.3-1.1c-0.1-0.3-0.2-0.8-0.3-1.3c-0.1-0.5-0.1-1.2-0.2-1.9c0-0.8,0-1.8,0-3v-9.3c0-2.8-0.5-4.7-1.4-5.8
		c-1-1.1-2.5-1.7-4.7-1.7h-3.2V262h-9.3v-59.2h14c4.9,0,8.4,1.1,10.5,3.4c2.2,2.3,3.3,5.7,3.3,10.2v4.7c0,6.1-2,10.1-6.1,12
		c2.4,1,4,2.5,4.9,4.7c0.9,2.2,1.3,4.8,1.3,7.9v9.1c0,1.5,0.1,2.7,0.2,3.8c0.1,1.1,0.4,2.2,0.8,3.3H185.8L185.8,262z M175.7,211.2
		v18.2h3.6c1.7,0,3.1-0.5,4.1-1.4c1-0.9,1.5-2.5,1.5-4.9v-5.8c0-2.1-0.4-3.7-1.1-4.7c-0.8-1-2-1.4-3.6-1.4H175.7L175.7,211.2z
		 M209.7,227.7h12.8v8.5h-12.8v17.3h16.1v8.5h-25.4v-59.2h25.4v8.5h-16.1V227.7L209.7,227.7z M239.8,219.1V262h-8.4v-59.2h11.7
		l9.6,35.4v-35.4h8.3V262h-9.6L239.8,219.1L239.8,219.1z M276.2,248.4c0,2.1,0.4,3.7,1.3,4.5c0.9,0.9,2,1.3,3.5,1.3
		c1.5,0,2.6-0.4,3.5-1.3c0.9-0.9,1.3-2.4,1.3-4.5v-32c0-2.1-0.4-3.7-1.3-4.5c-0.9-0.9-2-1.3-3.5-1.3c-1.5,0-2.6,0.4-3.5,1.3
		c-0.9,0.9-1.3,2.4-1.3,4.5V248.4L276.2,248.4z M266.9,217c0-4.8,1.2-8.5,3.6-11c2.4-2.6,5.9-3.8,10.5-3.8s8.1,1.3,10.5,3.8
		c2.4,2.6,3.6,6.2,3.6,11v30.8c0,4.8-1.2,8.5-3.6,11c-2.4,2.6-5.9,3.8-10.5,3.8s-8.1-1.3-10.5-3.8c-2.4-2.6-3.6-6.2-3.6-11V217
		L266.9,217z M310.1,253v9h-9v-9H310.1L310.1,253z M329,238.4l-2.9,5.4V262h-9.3v-59.2h9.3v25.8l12.4-25.8h9.1l-12.9,26.4l12.9,32.8
		h-9.6L329,238.4L329,238.4z M377.7,202.8v8.3L360,253.5h17.7v8.5h-27.2v-8.3l17.7-42.5h-16.8v-8.5H377.7L377.7,202.8z"/>
	<path class="st1" d="M235.7,84.7"/>
	<path class="st0" d="M255,126.2c8.7-11.5,4.3-23.4,4.3-23.4c-3.2-9.8-9.3-9.5-9-23.7c-5.4,11.6-2.3,16.1,2.5,24.1
		C257.6,111.1,255,126.2,255,126.2z"/>
	<path class="st0" d="M302.7,117c-4.7-9.7-14-16.6-26.3-19.4c-2.1-0.5-4.2-0.8-6.4-1c-3-5.9-7.1-7.2-6.9-18.3
		c-4.8,10.4-2.1,14.5,2.3,21.6c4.3,7.1,2,20.7,2,20.7c4.7-6.2,5.1-12.5,4.8-16.5c4.3,0.7,8.3,2,11.9,3.9l0,0c0,0,6.3,2.9,6.2,6.8
		c0.4,2-4.5,3.6-7.3,4.4c0,0,0,0,0,0c-6.9,1.9-16,6.8-16,6.8c-3.8,2.2-7.7,4.8-11.2,7.4c-8,5.8-17.5,13.7-25.1,17.3
		c-7.6,3.6-15.1,3.9-16.1-1.9c-2.4-14.3,7.8-30.4,25.4-39.2c3,9.1,0.8,21.7,0.8,21.7c9.6-12.7,4.8-25.8,4.8-25.8
		c-3.5-10.8-10.3-10.5-10-26.2c-5.3,11.5-3.2,16.7,1.1,23.9c-11.2,5.5-20.1,13.8-25.4,23.5c-5.8,10.8-6.4,22.1-1.8,31.9
		c4.7,9.7,14,16.6,26.3,19.4c11.9,2.7,25.2,1.2,37.5-4.3c12.3-5.4,22.1-14.2,27.7-24.7C306.7,138,307.4,126.7,302.7,117z
		 M270.4,167.6c-14.9,6.6-30.7,6.3-41.8,0.4l0,0c0,0-2.5-1.1-4.3-3c-0.1-0.1-0.1-0.1-0.2-0.2c0,0,0,0,0,0c-1.2-1.3-1.3-2.5-1.3-3.2
		c0-0.1,0-0.2,0-0.2c0,0,0-0.1,0-0.1c0.2-1,1-1.9,2.3-2.7c1.4-0.7,5.7-1.7,8.9-2.9c0,0,0,0,0.1,0c6.2-2,15.4-7.6,22.9-13
		c8-5.8,17.5-13.7,25.1-17.3c7.6-3.6,13-4.6,15.1-0.6c0.4,0.7,0.7,1.6,1,2.6C300.6,142.2,289.4,159.1,270.4,167.6z"/>
	<g>
		<path class="st1" d="M212,52.4c0.5-0.5,0.8-1.5,0.8-2.7v-1.8c0-1.2-0.2-2-0.6-2.4c-0.4-0.5-1.1-0.7-1.9-0.6l-2.4,0.3v8.4l2-0.2
			C210.7,53.2,211.4,52.9,212,52.4z"/>
		<polygon class="st1" points="307.2,46.6 304.8,62.5 309.6,63.1 		"/>
		<path class="st1" d="M212.6,66.7c0.4-0.5,0.7-1.3,0.7-2.5v-2.8c0-1.5-0.2-2.5-0.7-3c-0.5-0.5-1.3-0.7-2.5-0.6l-2.2,0.2v9.8
			l2.9-0.3C211.5,67.5,212.2,67.2,212.6,66.7z"/>
		<path class="st1" d="M502,162.6l-101,0.3v-53.5V92.8c0-15.9,0-36.4,0-45.5c-99.5-27.2-180-29.4-291.5-0.2v45.7v14.3v55.7L10,162.6
			l21.7,43.6L25.7,250l53.3,3.8l2.6,26.3h36.7c11,20.8,28.3,39.4,45.9,53.9c24.1,20,59.6,41.3,91.3,43.8l2.6,0.2l2.7-0.3
			c31-3.1,64.3-21.4,88.1-41.1c18.3-15.2,35-34.5,44.8-56.5h36.7l2.6-26.3l53.3-3.8l-5.9-43.8L502,162.6z M386.9,183.3l-7.1,0v-81.6
			c2.4,0.8,4.7,1.6,7.1,2.4V183.3z M355.6,47.6l13.3,3.3v4.6l-8.4-2.1v8.9l6.7,1.7v4.6l-6.7-1.7v9.4l8.4,2.1v4.6l-13.3-3.3V47.6z
			 M337,44.5l15.2,3.2v4.6l-5.1-1.1v27.4l-4.9-1V50.2l-5.1-1.1V44.5z M319.2,63.9l4.7,0.7v2.5c0,1.2,0.2,2,0.7,2.5
			c0.5,0.5,1.1,0.9,1.9,1c0.8,0.1,1.4,0,1.9-0.4c0.5-0.4,0.7-1.2,0.7-2.3c0-1.1-0.2-2.1-0.7-3c-0.5-0.9-1.1-1.8-1.8-2.7
			c-0.7-0.9-1.5-1.7-2.3-2.6c-0.8-0.9-1.6-1.8-2.3-2.8c-0.7-1-1.3-2.1-1.8-3.3c-0.5-1.2-0.7-2.6-0.7-4.1c0-2.6,0.6-4.5,1.8-5.7
			c1.2-1.2,3-1.6,5.5-1.2c2.4,0.4,4.3,1.4,5.5,2.9c1.2,1.6,1.8,3.7,1.8,6.2v1.2l-4.7-0.7v-1.6c0-1.2-0.2-2-0.7-2.5
			c-0.4-0.5-1-0.9-1.8-1c-0.8-0.1-1.4,0-1.8,0.4c-0.4,0.4-0.7,1.2-0.7,2.3c0,1.1,0.2,2.1,0.7,3c0.5,0.9,1.1,1.8,1.8,2.7
			c0.7,0.9,1.5,1.7,2.3,2.6c0.8,0.9,1.6,1.8,2.3,2.8c0.7,1,1.3,2.1,1.8,3.3c0.5,1.2,0.7,2.6,0.7,4.1c0,2.6-0.6,4.5-1.9,5.7
			c-1.2,1.2-3.1,1.6-5.5,1.2c-2.4-0.4-4.3-1.4-5.5-3c-1.2-1.6-1.9-3.7-1.9-6.2V63.9z M303.8,40.6l7.3,0.9l5.1,32.6l-5-0.6l-0.9-5.9
			l-6.1-0.7l-0.9,5.7l-4.6-0.6L303.8,40.6z M280.9,39l15.5,1.4v4.6l-5.2-0.5v27.4l-5-0.4V44l-5.2-0.5V39z M257.4,38.1l15.5,0.5v4.6
			l-5.2-0.2v27.4l-5-0.2V42.8l-5.2-0.2V38.1z M371.4,99v84.4L256,183.9l-116.9-0.5V98.1C217.3,76.7,294.6,75.2,371.4,99z M239.6,61
			l4.7-0.2v2.5c0,1.2,0.2,2,0.7,2.4c0.5,0.4,1.1,0.6,1.9,0.6c0.8,0,1.4-0.3,1.9-0.7c0.5-0.5,0.7-1.3,0.7-2.4c0-1.1-0.2-2.1-0.7-2.9
			c-0.5-0.8-1.1-1.6-1.8-2.3c-0.7-0.7-1.5-1.4-2.3-2.2c-0.8-0.7-1.6-1.5-2.3-2.4c-0.7-0.9-1.3-1.8-1.8-2.9c-0.5-1.1-0.7-2.4-0.7-3.9
			c0-2.6,0.6-4.6,1.8-6c1.2-1.4,3.1-2.2,5.5-2.3c2.5-0.1,4.3,0.5,5.5,1.9c1.2,1.3,1.8,3.3,1.8,5.9v1.2l-4.7,0.2v-1.6
			c0-1.2-0.2-2-0.7-2.4c-0.4-0.5-1.1-0.7-1.8-0.6c-0.8,0-1.4,0.3-1.8,0.8c-0.4,0.5-0.7,1.3-0.7,2.5c0,1.1,0.2,2.1,0.7,2.9
			c0.5,0.8,1.1,1.6,1.8,2.3c0.7,0.7,1.5,1.4,2.3,2.2c0.8,0.7,1.6,1.5,2.3,2.4c0.7,0.9,1.3,1.8,1.8,2.9c0.5,1.1,0.7,2.4,0.7,3.9
			c0,2.6-0.6,4.6-1.9,6c-1.3,1.4-3.1,2.2-5.6,2.3c-2.5,0.1-4.3-0.5-5.6-1.9c-1.3-1.3-1.9-3.3-1.9-5.9V61z M222.2,39.3l13.7-1v4.6
			l-8.6,0.6v8.9l6.9-0.5v4.6l-6.9,0.5v9.4l8.6-0.6v4.6l-13.7,1V39.3z M202.8,41.1l7.5-0.8c2.6-0.3,4.5,0.1,5.6,1.2
			c1.2,1.1,1.7,2.9,1.7,5.3V48c0,1.6-0.3,3-0.8,4.1c-0.5,1.1-1.3,2-2.5,2.6c1.4,0.4,2.3,1.1,2.9,2.2c0.6,1.1,0.8,2.5,0.8,4.2v2.6
			c0,2.5-0.6,4.4-1.9,5.8c-1.3,1.4-3.2,2.3-5.7,2.5l-7.8,0.8V41.1z M179,44.2l13.6-1.9v4.6l-8.6,1.2v8.9l6.8-1v4.6l-6.8,1v9.4
			l8.6-1.2v4.6L179,76.1V44.2z M158.6,47.7l4.9-1v13.7l5.6-1.1V45.7l5-1v31.9l-5,1V63.9l-5.6,1.1v13.7l-4.9,1V47.7z M139.9,51.6
			l15.1-3.5v4.6l-5.1,1.2v27.4l-4.9,1.1V55l-5.1,1.2V51.6z M130.7,100.5v82.8l-7.1,0v-80.7C126,101.9,128.3,101.2,130.7,100.5z
			 M108.1,183.3l-17.7-0.1l5.3-2.6l-4.8,2.6L108.1,183.3z M73.7,199.6l4.6,47.2l-43.9-3.2l36.3-1.5l-36.6-1.4l0.6-4.4l36-1.5
			l-35.6-1.3l0.6-4.5l35-1.4l-34.6-1.3l0.6-4.5l34-1.4L37,219l0.6-4.6l33-1.4L38,211.8l0.6-4.7l32-1.3l-32-1.2l-2.3-4.6l34.3-1.4
			L35,197.2l-2.2-4.3l37.8-1.6l-39.3-1.5l-2-4.1l41.3-1.7l-43-1.6l-1.9-3.8l44.9-1.9L24,175l-2.6-5.3l77.1,0.2l-26.4,13.2h0
			L73.7,199.6z M339.9,325.8c-21.5,17.8-52.4,35.1-80.5,37.9l-1.4,0.1l-1.4-0.1c-28.5-2.2-61.7-22.6-83.4-40.5
			c-14.1-11.7-28.5-26.5-38.7-43.1h8.4c9.6,14.4,22.4,27.3,34.8,37.6c20.3,16.8,52.6,36.8,79.4,38.9l0.8,0.1l0.8-0.1
			c26.6-2.7,56.4-19.5,76.7-36.3c13.2-11,25.9-24.7,34.7-40.3h8C368.9,297.8,354.8,313.4,339.9,325.8z M153.4,280.1h97.1h11.1h98.6
			c-22.5,36.1-70.1,64.9-102.3,68.1C227.7,345.9,179.1,315.2,153.4,280.1z M431.5,196.2L385,198l46.2,1.9l-0.4,3.6l-45.9,1.7
			l45.5,1.9l-0.4,3.7l-45.2,1.7l44.8,1.9l-0.4,3.7l-44.4,1.7l44.1,1.8l-0.4,3.8L385,227l43.4,1.8l-0.4,3.8l-43,1.6l42.7,1.8
			l-0.4,3.9l-42.3,1.6l42,1.7l-0.4,4l-41.6,1.6l41.2,1.7l-0.4,4l-40.9,1.5l40.5,1.7l-0.4,4.1l-40.1,1.5l39.8,1.6l-0.8,8.1H261.6
			h-11.1H88l-0.8-8.1l39.8-1.6l-40.1-1.5l-0.4-4.1l40.5-1.7l-40.9-1.5l-0.4-4l41.2-1.7l-41.6-1.6l-0.4-4l42-1.7l-42.3-1.6l-0.4-3.9
			l42.7-1.8l-43-1.6l-0.4-3.8L127,227l-43.7-1.7l-0.4-3.8l44.1-1.8l-44.4-1.7l-0.4-3.7l44.8-1.9l-45.2-1.7l-0.4-3.7l45.5-1.9
			l-45.9-1.7l-0.4-3.6L127,198l-46.6-1.8l-0.6-6l0.3,0l170.3,0.7v0l5.6,0l5.6,0v0l170.3-0.7l0.3,0L431.5,196.2z M475.6,199.9
			l-2.3,4.6l-32,1.2l32,1.3l0.6,4.7l-32.7,1.2l33,1.4l0.6,4.6l-33.6,1.3l34,1.4l0.6,4.5l-34.6,1.3l35,1.4l0.6,4.5l-35.6,1.3l36,1.5
			l0.6,4.4l-36.6,1.4l36.3,1.5l-43.9,3.2l4.6-47.2l1.6-16.5h0l-26.4-13.2l77.1-0.2L488,175l-46.7,1.8l44.9,1.9l-1.9,3.8l-43,1.6
			l41.3,1.7l-2,4.1l-39.3,1.5l37.8,1.6l-2.2,4.3l-35.6,1.4L475.6,199.9z"/>
	</g>
</g>
</svg>
