<svg width="167" height="54" viewBox="0 0 167 54" fill="none" xmlns="http://www.w3.org/2000/svg">
<path d="M69.1784 26.2361C69.1784 29.983 68.1236 32.5936 66.014 34.0679C64.0672 35.4322 61.3915 36.1123 57.9908 36.1123H50.269V35.5951H52.0692V17.5288H50.269V17.0115H58.6995C62.1938 17.0115 64.8125 17.7243 66.5597 19.1538C68.3028 20.5833 69.1784 22.9413 69.1784 26.2361ZM57.3921 35.5951H58.4307C60.2674 35.5951 61.5829 34.9435 62.373 33.6443C63.1631 32.3451 63.5582 30.1663 63.5582 27.1077V25.5234C63.5582 21.4304 62.7762 18.9664 61.2123 18.1274C60.467 17.7283 59.4122 17.5288 58.0478 17.5288H57.3921V35.5951Z" fill="#222222"/>
<path d="M77.1202 29.6979H77.9103V27.5964C77.9103 25.8696 77.8166 24.7089 77.6252 24.1183C77.4338 23.5278 77.0672 23.2305 76.5215 23.2305C76.1957 23.2305 75.8984 23.316 75.6337 23.4911C75.3689 23.6622 75.2386 23.8984 75.2386 24.1998C75.2386 24.5012 75.2915 24.8066 75.4015 25.1121H76.0857C76.2323 25.4949 76.3056 25.9551 76.3056 26.4886C76.3056 27.0262 76.0776 27.4905 75.6214 27.8815C75.1653 28.2724 74.5951 28.4679 73.9028 28.4679C72.3389 28.4679 71.5569 27.7145 71.5569 26.2035C71.5569 23.9676 73.4588 22.8477 77.2586 22.8477C79.4212 22.8477 80.92 23.2142 81.7467 23.9514C82.5735 24.6885 82.9889 26.0406 82.9889 28.0037V33.5425C82.9889 34.4873 83.2536 34.9598 83.779 34.9598C84.398 34.9598 84.7605 34.0231 84.8705 32.1496L85.2818 32.1781C85.2085 33.7787 84.9071 34.8783 84.3817 35.4811C83.8564 36.0838 82.9889 36.3811 81.7915 36.3811C79.6086 36.3811 78.3542 35.7091 78.0243 34.3611C77.7881 35.0534 77.4338 35.5625 76.9613 35.8883C76.4889 36.2142 75.7966 36.3811 74.8884 36.3811C72.1963 36.3811 70.8483 35.2815 70.8483 33.0782C70.8483 31.7872 71.3614 30.8993 72.3918 30.4187C73.41 29.9422 74.9902 29.6979 77.1202 29.6979ZM76.1753 34.8824C76.2771 35.1553 76.4645 35.2937 76.7496 35.2937C77.0306 35.2937 77.2953 35.0616 77.5397 34.5973C77.784 34.133 77.9062 33.4936 77.9062 32.675V30.1377H77.7148C76.5867 30.1377 76.0246 30.9645 76.0246 32.6221V33.0578C76.0246 34.0027 76.0776 34.6095 76.1753 34.8824Z" fill="#222222"/>
<path d="M85.6036 23.1246H92.181V25.6334C92.4702 24.7985 92.9181 24.1224 93.5168 23.6133C94.1155 23.1042 95.0278 22.8477 96.2455 22.8477C99.0638 22.8477 100.473 24.3668 100.473 27.405V35.6195H102V36.1123H94.2825V35.6195H95.4025V26.7533C95.4025 25.6619 95.3292 24.9573 95.1826 24.6396C95.0359 24.322 94.7753 24.1631 94.3925 24.1631C93.8101 24.1631 93.2969 24.546 92.8489 25.3075C92.405 26.0732 92.181 26.9977 92.181 28.0892V35.6195H93.3539V36.1123H85.6036V35.6195H87.1024V23.6133H85.6036V23.1246Z" fill="#222222"/>
<path d="M107.677 17.0115H115.998V17.5288H114.499V26.1506L114.719 26.0977L122.412 17.5288H120.258V17.0115H125.035V17.5288H123.398L118.706 22.7662L125.255 35.591H126.729V36.1083H117.969V35.5951H119.252L114.748 26.8918L114.503 26.9448V35.5951H116.002V36.1123H107.681V35.5951H109.18V17.5288H107.681V17.0115H107.677Z" fill="#222222"/>
<path d="M127.19 23.1246H133.877V35.6236H135.404V36.1164H127.3V35.6236H128.798V23.6133H127.19V23.1246ZM131.311 21.239C130.346 21.239 129.662 20.9946 129.25 20.5018C128.843 20.009 128.635 19.4022 128.635 18.6732C128.635 17.9442 128.859 17.3455 129.303 16.8731C129.747 16.4006 130.427 16.1644 131.336 16.1644C132.244 16.1644 132.936 16.3803 133.409 16.8038C133.881 17.2315 134.117 17.8424 134.117 18.6325C134.117 19.4226 133.889 20.0579 133.437 20.5303C132.985 21.0028 132.272 21.239 131.311 21.239Z" fill="#222222"/>
<path d="M136.003 23.1246H142.58V25.6334C142.869 24.7985 143.317 24.1224 143.916 23.6133C144.515 23.1042 145.427 22.8477 146.645 22.8477C149.463 22.8477 150.872 24.3668 150.872 27.405V35.6195H152.399V36.1123H144.678V35.6195H145.798V26.7533C145.798 25.6619 145.724 24.9573 145.578 24.6396C145.431 24.322 145.17 24.1631 144.788 24.1631C144.205 24.1631 143.692 24.546 143.244 25.3075C142.8 26.0732 142.576 26.9977 142.576 28.0892V35.6195H143.749V36.1123H135.999V35.6195H137.498V23.6133H135.999V23.1246H136.003Z" fill="#222222"/>
<path d="M163.697 21.7032L164.463 21.2389C164.573 20.6769 164.353 20.3918 163.807 20.3918C163.025 20.3918 162.634 20.9905 162.634 22.1919C162.634 22.6644 162.699 23.2101 162.825 23.8292C164.206 24.7577 164.898 25.9429 164.898 27.3887C164.898 28.8345 164.398 29.9585 163.396 30.7568C162.394 31.5591 161.042 31.9582 159.331 31.9582C158.622 31.9582 157.885 31.8849 157.12 31.7383C156.317 32.2474 155.918 32.6302 155.918 32.8827C155.918 33.1393 156.501 33.2655 157.665 33.2655H160.447C164.577 33.2655 166.642 34.748 166.642 37.7129C166.642 39.3134 166.018 40.5841 164.772 41.5208C163.526 42.4575 161.583 42.9259 158.948 42.9259C154.456 42.9259 152.208 41.9525 152.208 40.0058C152.208 38.951 152.909 38.222 154.31 37.8228L155.947 38.56C155.8 39.0894 155.727 39.5863 155.727 40.0628C155.727 41.6267 156.892 42.4087 159.221 42.4087C160.638 42.4087 161.73 42.1439 162.496 41.6186C163.261 41.0891 163.64 40.4375 163.64 39.6555C163.64 38.8736 163.408 38.3482 162.944 38.0876C162.479 37.8228 161.555 37.6925 160.174 37.6925H157.527C156.053 37.6925 154.998 37.4482 154.362 36.9554C153.727 36.4626 153.409 35.8598 153.409 35.139C153.409 34.4222 153.638 33.8194 154.09 33.3388C154.546 32.8583 155.352 32.2596 156.517 31.5509C154.407 30.9523 153.352 29.5675 153.352 27.405C153.352 26.0406 153.845 24.941 154.827 24.102C155.808 23.2671 157.283 22.8476 159.246 22.8476C160.427 22.8476 161.437 23.0757 162.276 23.5278C162.166 23.035 162.113 22.5911 162.113 22.1919C162.113 21.1738 162.386 20.4366 162.931 19.9805C163.477 19.5244 164.088 19.3004 164.76 19.3004C165.432 19.3004 165.974 19.4796 166.385 19.8339C166.792 20.1882 167 20.6769 167 21.2919C167 21.9109 166.837 22.3711 166.507 22.6685C166.181 22.9698 165.782 23.1205 165.318 23.1205C164.854 23.1205 164.471 22.9983 164.173 22.754C163.876 22.5096 163.717 22.1594 163.697 21.7032ZM157.914 26.8063V28.2806C157.914 29.4983 158.02 30.3251 158.227 30.7649C158.435 31.2007 158.753 31.4206 159.184 31.4206C159.612 31.4206 159.922 31.2088 160.113 30.7812C160.304 30.3536 160.398 29.478 160.398 28.1462V26.8104C160.398 25.3931 160.309 24.4604 160.125 24.0124C159.942 23.5685 159.637 23.3445 159.213 23.3445C158.785 23.3445 158.464 23.5767 158.244 24.0409C158.024 24.5012 157.914 25.4256 157.914 26.8063Z" fill="#222222"/>
<path d="M39.1631 25.3442C39.1305 21.9395 36.5892 19.5569 33.1763 19.5895C26.3057 19.6588 22.4814 27.8285 22.7054 34.133L21.8787 34.1412C21.8217 32.2189 21.8909 25.666 25.1775 20.4448C26.5745 19.6669 28.1058 18.9705 30.0037 19.0886C29.3439 18.384 28.2728 18.1274 26.7903 18.3148C26.8188 18.2822 26.8433 18.2496 26.8718 18.2211C27.4419 17.6021 27.9795 17.0482 28.4886 16.5187C30.5983 15.9038 33.2414 17.6184 34.4632 15.0567C32.1092 16.1115 31.258 15.0281 29.7919 15.187C30.8915 14.0833 31.7753 13.2484 32.5287 12.5723C32.8586 12.4868 33.2333 12.4664 33.6691 12.5601C33.6202 11.8678 34.1374 11.3139 34.6221 11.3465C35.7706 11.4198 35.1108 13.061 35.1108 13.061C35.461 13.3298 37.0901 13.1262 37.0046 11.7944C36.919 10.4668 35.8194 10.5278 35.8194 10.5278C37.7173 10.2876 37.8883 8.911 37.7906 7.63625C37.4037 7.53036 36.9883 7.40818 36.6054 7.40818C35.7665 7.40004 35.0008 7.75843 34.5895 9.00874C34.5895 9.00874 34.8583 7.94985 33.5713 7.61589C32.2803 7.28193 31.7793 8.83769 31.9748 9.23681C31.9748 9.23681 33.7016 8.88656 33.555 10.0269C33.4939 10.5075 32.8504 10.9229 32.1785 10.7437C32.1866 11.1021 32.1296 11.3994 32.0318 11.6682C31.2458 12.3687 30.3132 13.2321 29.1484 14.401C29.238 13.1303 28.4683 12.1732 29.6086 10.0799C26.9695 11.0939 28.4479 13.8511 27.6863 15.9038C27.275 16.3314 26.8514 16.7835 26.3993 17.2681C26.3097 16.1522 25.9473 15.3499 25.3079 14.8693C25.6052 16.5839 25.1898 18.0623 24.64 19.4348C20.8524 24.998 20.7954 32.056 20.8687 34.1615L20.3677 34.1656C20.3107 15.1992 26.2079 14.0344 26.1591 9.06576C26.1143 3.99529 20.4492 3.15632 19.3292 0C18.2703 3.17668 12.6174 4.12968 12.6663 9.19201C12.7152 14.1607 18.6491 15.2033 18.9667 34.1697L18.4658 34.1738C18.4984 32.0682 18.2988 25.0103 14.4013 19.5244C13.827 18.1641 13.3831 16.6939 13.6438 14.9752C13.0125 15.468 12.6663 16.2785 12.6011 17.3944C12.1409 16.9179 11.7092 16.478 11.2897 16.0545C10.4874 14.0181 11.9129 11.2324 9.25342 10.2713C10.4345 12.3402 9.68512 13.3136 9.79915 14.5842C8.60993 13.4398 7.661 12.5927 6.86276 11.9085C6.76094 11.6438 6.69578 11.3465 6.69578 10.9881C6.02786 11.1835 5.37624 10.7804 5.307 10.2998C5.13595 9.15943 6.87091 9.4771 6.87091 9.4771C7.05825 9.07798 6.52473 7.53036 5.24184 7.88876C3.95895 8.25123 4.25218 9.30197 4.25218 9.30197C3.81641 8.05981 3.0426 7.71771 2.20363 7.74214C1.8208 7.75436 1.40539 7.88061 1.02256 7.99465C0.95332 9.26939 1.14881 10.6419 3.05074 10.8455C3.05074 10.8455 1.95112 10.8048 1.89003 12.1365C1.82894 13.4683 3.46208 13.6394 3.80826 13.3624C3.80826 13.3624 3.11591 11.7334 4.26033 11.6397C4.74497 11.599 5.27035 12.1406 5.23777 12.833C5.66947 12.7312 6.04415 12.7434 6.37811 12.8208C7.14785 13.4805 8.04383 14.2991 9.16789 15.3825C7.70173 15.2562 6.87091 16.3518 4.49654 15.3458C5.77129 17.8831 8.37779 16.1155 10.4997 16.6898C11.021 17.207 11.5667 17.7528 12.1491 18.3596C12.1776 18.3922 12.2061 18.4207 12.2346 18.4533C10.7522 18.2944 9.68512 18.5754 9.03756 19.2922C10.9314 19.1375 12.4749 19.8054 13.8881 20.5548C17.2806 25.7067 17.4761 32.2596 17.4598 34.1819L16.6209 34.19C16.7186 27.8856 12.7437 19.7891 5.86903 19.8583C2.45613 19.8991 -0.0322651 22.3304 0.000316245 25.7352C0.0736243 33.2411 9.86024 29.3924 9.90504 33.9864C9.92948 36.4789 7.03381 36.1083 6.97272 36.1001C7.03789 35.0779 7.7506 35.3304 7.74246 34.5525C7.73431 33.7828 7.01752 33.7624 6.46364 33.1922C5.92197 33.7746 5.21333 33.8072 5.22148 34.577C5.22962 35.3141 5.8731 35.1145 6.01157 35.9739C4.97712 35.9128 5.22148 35.196 4.4436 35.2041C3.67386 35.2123 3.6535 35.9291 3.08333 36.487C3.66572 37.0287 3.6983 37.7373 4.46803 37.7292C5.24591 37.721 4.98526 37.0083 6.01972 36.9269C5.89754 37.7821 5.24998 37.5989 5.25813 38.3401C5.26627 39.1098 5.97492 39.1302 6.5288 39.7004C7.07047 39.118 7.79133 39.0854 7.78318 38.3157C7.77504 37.55 7.08268 37.7903 6.98087 36.8169C7.04196 36.821 10.9232 37.1794 10.8866 33.6443C10.8499 29.9219 7.55919 29.9219 7.53475 27.2013C7.52253 25.8899 8.4063 25.3279 9.76657 25.3157C13.1469 25.2831 15.5986 30.2233 15.6801 34.2023L15.3869 34.2063C14.275 34.2186 13.3953 35.1186 13.4075 36.2264C13.4198 37.3382 14.3198 38.2301 15.4276 38.2179L17.5942 38.1976C16.8327 40.2461 14.613 41.024 12.65 41.0443C9.26563 41.0769 7.33926 42.3476 7.06232 44.5876C8.09271 42.9137 9.31043 43.5042 10.3978 43.1173C11.4893 42.7304 12.1043 41.7082 13.6519 41.6919C12.5523 42.2824 12.0065 42.9341 12.0798 43.6549C12.6785 43.0848 13.5949 43.2273 14.2099 42.8567C14.833 42.482 15.1588 41.362 16.1159 40.9222C15.7127 41.4353 15.2402 42.148 15.1181 42.6938C15.7778 42.0625 16.4457 42.1073 16.9426 41.7123C17.4558 41.305 17.4924 40.519 18.3314 40.2746C18.1563 41.4312 17.4924 43.2314 15.0692 43.9522C12.5808 44.6935 11.1309 46.2451 11.082 48.5829C12.1817 47.0556 12.65 47.2837 13.4808 46.6606C14.328 46.0293 14.2384 45.4225 15.1384 44.8645C14.8574 45.4632 14.6049 46.0782 14.6864 46.8194C15.1303 46.1637 16.0059 46.0578 16.8897 45.227C17.4761 44.6772 17.4476 43.7038 18.0259 43.6957C18.421 43.6916 18.7183 44.0052 18.7264 44.5265C18.7346 45.3614 17.7531 46.2003 17.301 47.3692C16.8489 48.534 17.2481 50.2812 17.2481 50.2812C17.9974 50.1182 18.6368 49.5074 19.2315 48.6887C19.2396 49.5847 18.5961 50.163 18.6043 50.7291C18.6165 51.898 19.4595 52.2605 19.8546 53.0546C20.2293 52.2564 21.0804 51.8736 21.0682 50.7047C21.0641 50.1427 20.3962 49.5725 20.3881 48.6806C20.999 49.487 21.6628 50.0857 22.4163 50.2323C22.4163 50.2323 22.7787 48.477 22.3022 47.3203C21.8217 46.1596 20.8279 45.341 20.8198 44.5061C20.8157 43.9848 21.1089 43.6631 21.504 43.6631C22.0823 43.659 22.0742 44.6324 22.6729 45.17C23.5729 45.9845 24.4526 46.07 24.9087 46.7176C24.9739 45.9763 24.7092 45.3695 24.42 44.7749C25.3323 45.3166 25.2549 45.9234 26.1143 46.5384C26.9573 47.1452 27.4257 46.9049 28.5538 48.4118C28.4601 46.0782 26.9817 44.555 24.477 43.8626C22.0375 43.1906 21.337 41.4027 21.1415 40.2502C21.9886 40.4782 22.0416 41.2602 22.5588 41.6593C23.0638 42.0462 23.7277 41.9851 24.3997 42.6042C24.2653 42.0625 23.7806 41.362 23.3652 40.8529C24.3304 41.2765 24.6807 42.3883 25.3119 42.7508C25.931 43.1092 26.8473 42.9463 27.4542 43.5042C27.5112 42.7793 26.9532 42.1399 25.8414 41.5697C27.389 41.5534 28.0243 42.5675 29.124 42.93C30.2195 43.2925 31.425 42.6816 32.488 44.331C32.1662 42.0951 30.2154 40.8651 26.831 40.8977C24.8639 40.9181 22.6281 40.185 21.8298 38.1487L24.0087 38.1283C25.1205 38.1161 26.0002 37.2079 25.988 36.0961C25.9758 34.9842 25.0798 34.1045 23.968 34.1167L23.6747 34.1208C23.6747 30.1377 26.0287 25.1487 29.409 25.1161C30.7693 25.1039 31.6653 25.6456 31.6775 26.957C31.706 29.6775 28.4153 29.7386 28.452 33.4651C28.4886 37.0002 32.3617 36.5644 32.4187 36.5563C32.3373 37.5337 31.6409 37.3056 31.649 38.0713C31.6572 38.841 32.3739 38.8614 32.9278 39.4316C33.4695 38.8492 34.1781 38.8166 34.17 38.0469C34.1618 37.3097 33.5184 37.5052 33.3799 36.6499C34.4144 36.711 34.17 37.4278 34.9479 37.4197C35.7176 37.4115 35.738 36.7029 36.3081 36.149C35.7258 35.6073 35.6932 34.8865 34.9234 34.8946C34.1456 34.9028 34.4062 35.6155 33.3718 35.6969C33.4899 34.8335 34.1415 35.0249 34.1333 34.2837C34.1252 33.514 33.4165 33.4936 32.8627 32.9234C32.321 33.5058 31.6001 33.5384 31.6083 34.3082C31.6164 35.086 32.321 34.8213 32.4106 35.8395C32.3495 35.8476 29.462 36.2752 29.4376 33.7828C29.3805 29.201 39.2405 32.8542 39.1631 25.3442Z" fill="#E40000"/>
<path d="M51.6784 44.889C51.3282 44.889 51.0227 44.8076 50.7661 44.6487C50.5055 44.4899 50.3059 44.2659 50.1675 43.9808C50.0249 43.6957 49.9557 43.3659 49.9557 42.9952V42.8405C49.9557 42.4821 50.029 42.1603 50.1797 41.8753C50.3304 41.5902 50.5259 41.3662 50.7702 41.2033C51.0146 41.0404 51.2834 40.9548 51.5766 40.9548C52.0857 40.9548 52.4726 41.1096 52.7332 41.415C52.9939 41.7246 53.1283 42.1318 53.1283 42.645V43.0767H50.6725L50.6603 43.093C50.6684 43.4555 50.758 43.7568 50.9372 43.989C51.1164 44.2252 51.3608 44.3392 51.6825 44.3392C51.9146 44.3392 52.1223 44.3066 52.2975 44.2374C52.4726 44.1722 52.6274 44.0786 52.7536 43.9645L53.0224 44.4125C52.888 44.5429 52.7088 44.6528 52.4848 44.7424C52.2608 44.8442 51.992 44.889 51.6784 44.889ZM50.6888 42.5472H52.4359V42.4576C52.4359 42.1889 52.3626 41.9608 52.2201 41.7775C52.0735 41.5942 51.8617 41.5046 51.5766 41.5046C51.3445 41.5046 51.149 41.6024 50.9861 41.7979C50.8232 41.9934 50.7213 42.2377 50.6847 42.531L50.6888 42.5472Z" fill="#222222"/>
<path d="M55.2095 44.889C54.957 44.889 54.7167 44.8645 54.4968 44.8116C54.2769 44.7587 54.0407 44.6813 53.7882 44.5754L53.78 43.6753H54.3013L54.4317 44.217C54.6801 44.3188 54.9367 44.3718 55.2095 44.3718C55.4905 44.3718 55.6901 44.3188 55.8123 44.2089C55.9345 44.103 55.9956 43.9686 55.9956 43.8097C55.9956 43.659 55.9345 43.5328 55.8123 43.431C55.6901 43.3292 55.4661 43.2396 55.1444 43.1662C54.6882 43.0604 54.3502 42.9219 54.1343 42.7427C53.9185 42.5676 53.8126 42.3314 53.8126 42.0381C53.8126 41.8345 53.8737 41.6512 53.9918 41.4883C54.1099 41.3254 54.2769 41.1991 54.4887 41.1014C54.7004 41.0077 54.9489 40.9589 55.2299 40.9589C55.515 40.9589 55.7634 40.9914 55.967 41.0566C56.1707 41.1218 56.3499 41.2114 56.5006 41.3173L56.5372 42.1807H56.02L55.91 41.6757C55.8286 41.6146 55.7308 41.5698 55.6209 41.5372C55.5109 41.5046 55.3806 41.4883 55.238 41.4883C55.0222 41.4883 54.8471 41.5372 54.7167 41.639C54.5823 41.7408 54.5172 41.8671 54.5172 42.0178C54.5172 42.1074 54.5375 42.1847 54.5742 42.2499C54.6109 42.3151 54.6882 42.3761 54.7982 42.425C54.9082 42.478 55.067 42.5309 55.2828 42.5798C55.8082 42.702 56.1788 42.8608 56.3865 43.0522C56.5942 43.2436 56.7001 43.4798 56.7001 43.7609C56.7001 44.0785 56.582 44.3473 56.3458 44.5632C56.0892 44.7831 55.7186 44.889 55.2095 44.889Z" fill="#222222"/>
<path d="M58.5897 44.8768C58.3087 44.8768 58.0888 44.7954 57.9218 44.6284C57.7589 44.4655 57.6734 44.2007 57.6734 43.8383V41.5413H57.0747V41.0322H57.6734V40.1199H58.3617V41.0322H59.1844V41.5413H58.3617V43.8383C58.3617 44.0215 58.3983 44.1559 58.4716 44.2415C58.5449 44.327 58.6386 44.3718 58.7608 44.3718C58.8422 44.3718 58.9318 44.3637 59.0337 44.3474C59.1355 44.3311 59.2129 44.3189 59.2699 44.3066L59.3635 44.7587C59.2617 44.7872 59.1396 44.8157 58.9929 44.8402C58.8504 44.8646 58.716 44.8768 58.5897 44.8768Z" fill="#222222"/>
<path d="M60.0559 44.8158V44.1071H60.7442V44.8158H60.0559Z" fill="#222222"/>
<path d="M63.477 44.8157V44.3758L64.263 44.2781V40.462L63.4607 40.4742V40.0425L64.9513 39.7208V44.2781L65.7332 44.3758V44.8157H63.477Z" fill="#222222"/>
<path d="M67.794 44.889C67.6148 44.889 67.4356 44.8727 67.2482 44.8402C67.0609 44.8076 66.898 44.7546 66.7514 44.6854L66.8573 44.1641C66.9998 44.2333 67.1464 44.2781 67.293 44.3107C67.4397 44.3433 67.6066 44.3555 67.794 44.3555C68.1239 44.3555 68.3886 44.2293 68.58 43.9768C68.7714 43.7243 68.8732 43.317 68.8773 42.755L68.8651 42.7387C68.7714 42.8934 68.6411 43.0156 68.4741 43.1011C68.3071 43.1867 68.1157 43.2274 67.908 43.2274C67.4112 43.2274 67.0202 43.0726 66.731 42.7672C66.4459 42.4617 66.2993 42.03 66.2993 41.4761C66.2993 41.1218 66.3686 40.8082 66.5111 40.5354C66.6536 40.2625 66.841 40.0466 67.0813 39.8919C67.3216 39.7371 67.5863 39.6597 67.8754 39.6597C68.409 39.6597 68.8284 39.8267 69.1339 40.1566C69.4393 40.4906 69.5941 40.9793 69.5941 41.6309V42.5513C69.5941 43.3455 69.4312 43.936 69.1013 44.3229C68.7796 44.6976 68.3397 44.889 67.794 44.889ZM67.908 42.6776C68.1605 42.6776 68.3723 42.6246 68.5434 42.5147C68.7144 42.4047 68.8325 42.2662 68.9099 42.0952V41.5576C68.9099 40.6494 68.5719 40.1973 67.9039 40.1973C67.7329 40.1973 67.5781 40.2503 67.4437 40.3602C67.3053 40.4702 67.1953 40.6168 67.1179 40.8082C67.0365 40.9996 66.9957 41.2196 66.9957 41.468C66.9957 41.8345 67.0772 42.1278 67.2401 42.3477C67.3989 42.5676 67.6229 42.6776 67.908 42.6776Z" fill="#222222"/>
<path d="M71.834 44.889C71.6548 44.889 71.4756 44.8727 71.2883 44.8402C71.1009 44.8076 70.938 44.7546 70.7914 44.6854L70.8973 44.1641C71.0399 44.2333 71.1865 44.2781 71.3331 44.3107C71.4797 44.3433 71.6467 44.3555 71.834 44.3555C72.1639 44.3555 72.4286 44.2293 72.62 43.9768C72.8115 43.7243 72.9133 43.317 72.9173 42.755L72.9051 42.7387C72.8115 42.8934 72.6811 43.0156 72.5142 43.1011C72.3472 43.1867 72.1558 43.2274 71.9481 43.2274C71.4512 43.2274 71.0602 43.0726 70.7711 42.7672C70.486 42.4617 70.3394 42.03 70.3394 41.4761C70.3394 41.1218 70.4086 40.8082 70.5511 40.5354C70.6937 40.2625 70.881 40.0466 71.1213 39.8919C71.3616 39.7371 71.6263 39.6597 71.9155 39.6597C72.449 39.6597 72.8685 39.8267 73.1739 40.1566C73.4794 40.4906 73.6341 40.9793 73.6341 41.6309V42.5513C73.6341 43.3455 73.4712 43.936 73.1413 44.3229C72.8155 44.6976 72.3798 44.889 71.834 44.889ZM71.944 42.6776C72.1965 42.6776 72.4083 42.6246 72.5793 42.5147C72.7504 42.4047 72.8685 42.2662 72.9459 42.0952V41.5576C72.9459 40.6494 72.6078 40.1973 71.9399 40.1973C71.7689 40.1973 71.6141 40.2503 71.4797 40.3602C71.3412 40.4702 71.2313 40.6168 71.1539 40.8082C71.0724 40.9996 71.0317 41.2196 71.0317 41.468C71.0317 41.8345 71.1132 42.1278 71.2761 42.3477C71.4349 42.5676 71.6589 42.6776 71.944 42.6776Z" fill="#222222"/>
<path d="M76.1288 44.889C75.9496 44.889 75.7704 44.8727 75.5831 44.8402C75.3957 44.8076 75.2328 44.7546 75.0862 44.6854L75.1921 44.1641C75.3347 44.2333 75.4813 44.2781 75.6279 44.3107C75.7745 44.3433 75.9415 44.3555 76.1288 44.3555C76.4587 44.3555 76.7234 44.2293 76.9148 43.9768C77.1063 43.7243 77.2081 43.317 77.2121 42.755L77.1999 42.7387C77.1063 42.8934 76.9759 43.0156 76.809 43.1011C76.642 43.1867 76.4506 43.2274 76.2429 43.2274C75.746 43.2274 75.355 43.0726 75.0659 42.7672C74.7808 42.4617 74.6342 42.03 74.6342 41.4761C74.6342 41.1218 74.7034 40.8082 74.8459 40.5354C74.9885 40.2625 75.1758 40.0466 75.4161 39.8919C75.6564 39.7371 75.9211 39.6597 76.2103 39.6597C76.7438 39.6597 77.1633 39.8267 77.4687 40.1566C77.7742 40.4906 77.9289 40.9793 77.9289 41.6309V42.5513C77.9289 43.3455 77.766 43.936 77.4361 44.3229C77.1103 44.6976 76.6746 44.889 76.1288 44.889ZM76.2388 42.6776C76.4913 42.6776 76.7031 42.6246 76.8741 42.5147C77.0452 42.4047 77.1633 42.2662 77.2407 42.0952V41.5576C77.2407 40.6494 76.9026 40.1973 76.2347 40.1973C76.0637 40.1973 75.9089 40.2503 75.7745 40.3602C75.636 40.4702 75.5261 40.6168 75.4487 40.8082C75.3672 40.9996 75.3265 41.2196 75.3265 41.468C75.3265 41.8345 75.408 42.1278 75.5709 42.3477C75.7297 42.5676 75.9537 42.6776 76.2388 42.6776Z" fill="#222222"/>
</svg>
